<svg xmlns="http://www.w3.org/2000/svg" viewBox="0 0 512 512"><path d="M436.877 273.59c-22.927 12.729-46.091 25.662-71.368 33.143-23.844 7.056-49.992 9.253-73.766.718-6.224-2.234-12.297-5.322-17.924-9.104 2.089-.522 4.17-1.075 6.23-1.702 11.982-3.65 23.497-9.228 33.021-17.455 8.439-7.29 14.83-16.951 18.56-27.435 3.645-10.245 4.456-21.902 1.038-32.324-3.235-9.865-9.888-18.074-18.771-23.426-16.73-10.079-40.151-9.944-56.122 1.661-17.578 12.772-25.893 35.445-23.334 56.744 1.723 14.338 8.077 27.232 17.331 37.806-11.588 1.407-23.302 2.001-34.966 2.102a351 351 0 0 1-75.013-7.433c-24.522-5.14-48.586-12.8-71.456-23.049a354 354 0 0 1-16.925-8.139c-2.401-1.233-5.426-.626-6.841 1.794-1.308 2.236-.618 5.603 1.794 6.841 23.897 12.266 49.167 21.892 75.188 28.566a365 365 0 0 0 79.344 11.266 350 350 0 0 0 39.91-1.038c5.986-.501 11.986-1.17 17.937-2.123a88 88 0 0 0 10.494 7.585c22.361 13.783 49.178 16.533 74.76 12.742 27.762-4.115 53.577-16.153 78.092-29.314 5.975-3.208 11.905-6.499 17.835-9.79 5.627-3.126.589-11.766-5.048-8.636m-182.563-58.817c4.894-6.648 12.516-12.038 20.423-14.343a47 47 0 0 1 4.743-1.115c.224-.04.95-.16 1.21-.205.188-.024.529-.07.6-.078q.364-.041.729-.078.729-.072 1.461-.122a50 50 0 0 1 3.664-.114c4.757.027 7.486.411 12.131 1.755a47 47 0 0 1 4.561 1.575l.007.003q.503.22 1 .452a43 43 0 0 1 5.616 3.153c1.856 1.237 2.514 1.747 4.358 3.509a37 37 0 0 1 2.141 2.222c.369.416.723.843 1.076 1.273l.041.05q.315.419.616.847c2.803 3.991 4.293 7.507 5.337 12.177.581 2.599.724 3.859.797 6.682a45 45 0 0 1-.162 5.142c-.031.362-.071.722-.107 1.084-.01.098-.039.335-.052.443-1.371 9.691-5.675 18.82-11.647 26.02-6.926 8.351-16.209 14.45-26.142 18.586-7.278 3.031-15.106 5.16-22.933 6.665-6.628-6.242-12.071-13.623-15.522-21.867-7.4-17.671-5.308-38.283 6.054-53.716"/><path d="M465.066 256.605c-.955-1.236-2.339-1.967-3.926-1.97l-53.666-.1c-2.616-.005-5.121 2.303-5 5 .122 2.713 2.197 4.995 5 5l47.835.089-8.374 52.412c-.411 2.572.661 5.506 3.492 6.151 2.4.547 5.709-.73 6.151-3.492l9.384-58.731c.261-1.64.146-3.01-.896-4.359"/></svg>