<svg width="512" height="512" viewBox="0 0 512 512" fill="none" xmlns="http://www.w3.org/2000/svg">
<path d="M238.41 436.877C225.681 413.95 212.748 390.786 205.267 365.509C198.211 341.665 196.014 315.517 204.549 291.743C206.783 285.519 209.871 279.446 213.653 273.819C214.175 275.908 214.728 277.989 215.355 280.049C219.005 292.031 224.583 303.546 232.81 313.07C240.1 321.509 249.761 327.9 260.245 331.63C270.49 335.275 282.147 336.086 292.569 332.668C302.434 329.433 310.643 322.78 315.995 313.897C326.074 297.167 325.939 273.746 314.334 257.775C301.562 240.197 278.889 231.882 257.59 234.441C243.252 236.164 230.358 242.518 219.784 251.772C218.377 240.184 217.783 228.47 217.682 216.806C217.46 191.607 219.952 166.458 225.115 141.793C230.255 117.271 237.915 93.207 248.164 70.337C250.727 64.6243 253.441 58.9807 256.303 53.412C257.536 51.011 256.929 47.986 254.509 46.571C252.273 45.263 248.906 45.953 247.668 48.365C235.402 72.262 225.776 97.532 219.102 123.553C212.446 149.507 208.668 176.116 207.836 202.897C207.422 216.209 207.769 229.534 208.874 242.807C209.375 248.793 210.044 254.793 210.997 260.744C208.215 264.051 205.679 267.558 203.412 271.238C189.629 293.599 186.879 320.416 190.67 345.998C194.785 373.76 206.823 399.575 219.984 424.09C223.192 430.065 226.483 435.995 229.774 441.925C232.9 447.552 241.54 442.514 238.41 436.877ZM297.227 254.314C303.875 259.208 309.265 266.83 311.57 274.737C312.024 276.298 312.396 277.881 312.685 279.48C312.725 279.704 312.845 280.43 312.89 280.69C312.914 280.878 312.96 281.219 312.968 281.29C312.995 281.533 313.021 281.776 313.046 282.019C313.094 282.505 313.135 282.992 313.168 283.48C313.251 284.7 313.289 285.922 313.282 287.144C313.255 291.901 312.871 294.63 311.527 299.275C311.081 300.821 310.555 302.344 309.952 303.836L309.949 303.843C309.802 304.178 309.652 304.512 309.497 304.843C308.588 306.791 307.534 308.668 306.344 310.459C305.107 312.315 304.597 312.973 302.835 314.817C302.125 315.561 301.383 316.276 300.613 316.958C300.197 317.327 299.77 317.681 299.34 318.034L299.29 318.075C299.011 318.285 298.728 318.49 298.443 318.691C294.452 321.494 290.936 322.984 286.266 324.028C283.667 324.609 282.407 324.752 279.584 324.825C277.868 324.869 276.152 324.815 274.442 324.663C274.08 324.632 273.72 324.592 273.358 324.556C273.26 324.546 273.023 324.517 272.915 324.504C263.224 323.133 254.095 318.829 246.895 312.857C238.544 305.931 232.445 296.648 228.309 286.715C225.278 279.437 223.149 271.609 221.644 263.782C227.886 257.154 235.267 251.711 243.511 248.26C261.182 240.86 281.794 242.952 297.227 254.314Z" fill="black"/>
<path d="M255.395 465.066C256.631 464.111 257.362 462.727 257.365 461.14L257.465 407.474C257.47 404.858 255.162 402.353 252.465 402.474C249.752 402.596 247.47 404.671 247.465 407.474L247.376 455.309L194.964 446.935C192.392 446.524 189.458 447.596 188.813 450.427C188.266 452.827 189.543 456.136 192.305 456.578L251.036 465.962C252.676 466.223 254.046 466.108 255.395 465.066Z" fill="black"/>
</svg>
