<svg id="line" height="512" viewBox="0 0 64 64" width="512" xmlns="http://www.w3.org/2000/svg"><path d="m60 21.37598c-.00244-.00793-.00232-6.41235-.00195-6.42194 0-2.80756-2.26465-5.09174-5.04785-5.09174h-5.06641v-1.25781c-.14203-4.38898-6.50311-4.3924-6.64551.00006 0-.00006 0 1.25775 0 1.25775h-7.91504v-1.25781c-.13739-4.38507-6.50604-4.39429-6.64648.00006 0-.00006 0 1.25775 0 1.25775h-7.91504v-1.25781c0-1.83203-1.49121-3.32227-3.32324-3.32227s-3.32227 1.49023-3.32227 3.32227v1.25781h-5.06641c-2.7832 0-5.04785 2.28418-5.04785 5.0918.01843 3.78369-.01331 34.11725.00006 38.67279-.00006 2.8067 2.26459 5.09088 5.04779 5.09088h45.9004c2.7832 0 5.04785-2.28418 5.04785-5.09082.00482-.0061-.00586-32.24542.00195-32.25098zm-14.76172-12.77148c.0307-1.73608 2.61499-1.73907 2.64551.00006-.00024 1.17261.00006 3.47211 0 4.6474 0 .72949-.59277 1.32227-1.32227 1.32227s-1.32324-.59277-1.32324-1.32227zm-14.56152 2.29175c.00763-.02338.0069-.04456 0-.06787v-2.22388c0-.72949.59375-1.32227 1.32324-1.32227s1.32324.59277 1.32324 1.32227v2.22394c-.00763.02332-.00696.04437 0 .06775v2.35577c0 .72949-.59375 1.32227-1.32324 1.32227s-1.32324-.59277-1.32324-1.32227zm-14.56055-.00488c.00647-.02002.00598-.03809 0-.05811v-2.22876c0-.72949.59277-1.32227 1.32227-1.32227s1.32324.59277 1.32324 1.32227v4.64746c-.0307 1.73602-2.61499 1.73901-2.64551-.00006zm41.88184 42.73558c0 1.7041-1.36719 3.09082-3.04785 3.09082h-45.9004c-1.68066 0-3.04785-1.38672-3.04785-3.09082v-31.25097h51.9961v31.25098zm0-33.25098h-51.9961v-5.42188c0-1.70508 1.36719-3.0918 3.04785-3.0918h5.06641v1.38965c0 1.83203 1.49023 3.32227 3.32227 3.32227s3.32324-1.49023 3.32324-3.32227v-1.38965h7.91504v1.38965c.13995 4.39093 6.50751 4.38904 6.64648-.00006v-1.38959h7.91504v1.38965c.13501 4.38727 6.50891 4.39093 6.64551-.00006v-1.38959h5.06641c1.68066 0 3.04785 1.38672 3.04785 3.0918z"/><path d="m22.99023 33.32324h5.87402c.55273 0 1-.44727 1-1v-5.14551c0-.55273-.44727-1-1-1h-5.87402c-.55273 0-1 .44727-1 1v5.14551c0 .55273.44727 1 1 1zm1-5.14551h3.87402v3.14551h-3.87402z"/><path d="m35.13574 33.32324h5.87402c.55273 0 1-.44727 1-1v-5.14551c0-.55273-.44727-1-1-1h-5.87402c-.55273 0-1 .44727-1 1v5.14551c0 .55273.44727 1 1 1zm1-5.14551h3.87402v3.14551h-3.87402z"/><path d="m47.28125 33.32324h5.87402c.55273 0 1-.44727 1-1v-5.14551c0-.55273-.44727-1-1-1h-5.87402c-.55273 0-1 .44727-1 1v5.14551c0 .55273.44727 1 1 1zm1-5.14551h3.87402v3.14551h-3.87402z"/><path d="m10.84473 43.57129h5.87402c.55273 0 1-.44727 1-1v-5.14648c0-.55273-.44727-1-1-1h-5.87402c-.55273 0-1 .44727-1 1v5.14648c0 .55273.44727 1 1 1zm1-5.14648h3.87402v3.14648h-3.87402z"/><path d="m10.84473 33.32324h5.87402c.55273 0 1-.44727 1-1v-5.14551c0-.55273-.44727-1-1-1h-5.87402c-.55273 0-1 .44727-1 1v5.14551c0 .55273.44727 1 1 1zm1-5.14551h3.87402v3.14551h-3.87402z"/><path d="m22.99023 43.57129h5.87402c.55273 0 1-.44727 1-1v-5.14648c0-.55273-.44727-1-1-1h-5.87402c-.55273 0-1 .44727-1 1v5.14648c0 .55273.44727 1 1 1zm1-5.14648h3.87402v3.14648h-3.87402z"/><path d="m35.13574 43.57129h5.87402c.55273 0 1-.44727 1-1v-5.14648c0-.55273-.44727-1-1-1h-5.87402c-.55273 0-1 .44727-1 1v5.14648c0 .55273.44727 1 1 1zm1-5.14648h3.87402v3.14648h-3.87402z"/><path d="m47.28125 43.57129h5.87402c.55273 0 1-.44727 1-1v-5.14648c0-.55273-.44727-1-1-1h-5.87402c-.55273 0-1 .44727-1 1v5.14648c0 .55273.44727 1 1 1zm1-5.14648h3.87402v3.14648h-3.87402z"/><path d="m10.84473 53.81836h5.87402c.55273 0 1-.44727 1-1v-5.14551c0-.55273-.44727-1-1-1h-5.87402c-.55273 0-1 .44727-1 1v5.14551c0 .55273.44727 1 1 1zm1-5.14551h3.87402v3.14551h-3.87402z"/><path d="m22.99023 53.81836h5.87402c.55273 0 1-.44727 1-1v-5.14551c0-.55273-.44727-1-1-1h-5.87402c-.55273 0-1 .44727-1 1v5.14551c0 .55273.44727 1 1 1zm1-5.14551h3.87402v3.14551h-3.87402z"/><path d="m35.13574 53.81836h5.87402c.55273 0 1-.44727 1-1v-5.14551c0-.55273-.44727-1-1-1h-5.87402c-.55273 0-1 .44727-1 1v5.14551c0 .55273.44727 1 1 1zm1-5.14551h3.87402v3.14551h-3.87402z"/><path d="m47.28125 53.81836h5.87402c.55273 0 1-.44727 1-1v-5.14551c0-.55273-.44727-1-1-1h-5.87402c-.55273 0-1 .44727-1 1v5.14551c0 .55273.44727 1 1 1zm1-5.14551h3.87402v3.14551h-3.87402z"/></svg>