<svg id="Image" height="512" viewBox="0 0 64 64" width="512" xmlns="http://www.w3.org/2000/svg"><g><path d="m49 34c-3.976 0-8 1.374-8 4v5.268c-1.541-.838-3.778-1.268-6-1.268-3.976 0-8 1.374-8 4v10c0 5.31 16 5.33 16 0v-.285c4.365 2.401 14 1.376 14-2.715v-15c0-2.626-4.024-4-8-4zm6 14c0 .705-2.278 2-6 2-2.763 0-4.131-.689-4.66-.843-.926-.417-1.34-.882-1.34-1.157 0-.109 0-2.434 0-2.286 3.204 1.763 8.977 1.661 12 .018zm-26 .732c3.108 1.688 8.891 1.689 12 0v2.268c0 .705-2.278 2-6 2s-6-1.295-6-2zm26-5.732c0 1.409-6.385 3.004-10.572 1.195-.987-.425-1.428-.907-1.428-1.195v-2.268c3.108 1.688 8.891 1.689 12 0zm-6-7c3.722 0 6 1.295 6 2s-2.278 2-6 2-6-1.295-6-2 2.278-2 6-2zm-14 8c3.722 0 6 1.295 6 2s-2.278 2-6 2-6-1.295-6-2 2.278-2 6-2zm0 14c-3.722 0-6-1.295-6-2v-2.268c3.108 1.688 8.891 1.689 12 0v2.268c0 .705-2.278 2-6 2zm9.443-3.798c-.991-.425-1.443-.921-1.443-1.202v-2.289c3.19 1.761 8.966 1.67 12 .021v2.268c0 1.398-6.337 3.009-10.557 1.202z"/><path d="m50 21c2.206 0 4-1.794 4-4s-1.794-4-4-4-4 1.794-4 4 1.794 4 4 4zm0-6c1.102 0 2 .897 2 2s-.898 2-2 2c-1.103 0-2-.897-2-2s.897-2 2-2z"/><path d="m57 24c-2.206 0-4 1.794-4 4s1.794 4 4 4 4-1.794 4-4-1.794-4-4-4zm0 6c-1.103 0-2-.897-2-2s.897-2 2-2c1.102 0 2 .897 2 2s-.898 2-2 2z"/><path d="m47.707 29.707 12-12c.936-.936-.479-2.35-1.414-1.414l-12 12c-.948.948.492 2.336 1.414 1.414z"/><path d="m24.001 52h-8.001c-2.757 0-5-2.243-5-5v-36c0-1.957-.807-3.729-2.106-5h28.106c2.757 0 5 2.243 5 5v20.441c0 1.322 2 1.324 2 0v-20.441c0-3.86-3.141-7-7-7h-33c-1.324 0-1.322 2 0 2 2.757 0 5 2.243 5 5v36c0 3.86 3.141 7 7 7h8.001c1.324 0 1.322-2 0-2z"/><path d="m16 11h16c1.324 0 1.322-2 0-2h-16c-1.324 0-1.322 2 0 2z"/><path d="m37 21h-7c-1.324 0-1.322 2 0 2h7c1.324 0 1.322-2 0-2z"/><path d="m16 23h10c1.324 0 1.322-2 0-2h-10c-1.324 0-1.322 2 0 2z"/><path d="m23 36h-7c-1.324 0-1.322 2 0 2h7c1.324 0 1.322-2 0-2z"/><path d="m32 38c1.324 0 1.322-2 0-2h-5c-1.324 0-1.322 2 0 2z"/><path d="m16 28h4c1.324 0 1.322-2 0-2h-4c-1.324 0-1.322 2 0 2z"/><path d="m16 41c-1.324 0-1.322 2 0 2h6c1.324 0 1.322-2 0-2z"/><path d="m16 33h1c1.324 0 1.322-2 0-2h-1c-1.324 0-1.322 2 0 2z"/><path d="m27.001 31h-6c-1.322 0-1.324 2 0 2h6c1.324 0 1.322-2 0-2z"/><path d="m31 26h-7c-1.324 0-1.322 2 0 2h7c1.324 0 1.322-2 0-2z"/><path d="m37 26h-2c-1.324 0-1.322 2 0 2h2c1.324 0 1.322-2 0-2z"/><path d="m37 36h-1c-1.324 0-1.322 2 0 2h1c1.324 0 1.322-2 0-2z"/><path d="m16 15h6.001c1.324 0 1.322-2 0-2h-6.001c-1.324 0-1.322 2 0 2z"/><path d="m37 31h-6c-1.324 0-1.322 2 0 2h6c1.324 0 1.322-2 0-2z"/></g></svg>