<svg xmlns="http://www.w3.org/2000/svg" viewBox="0 0 1920 1080">
  <defs>
    <style>
      path {
        fill: currentColor;
        stroke-width: 0px;
      }
    </style>
  </defs>
  <path d="m262.27,710.25c-21.83,0-39.42-2.43-52.76-7.28-13.34-4.86-23.05-11.04-29.11-18.56-6.07-7.52-9.1-15.28-9.1-23.29,0-7.52,1.76-14.13,5.28-19.83,3.51-5.7,7.88-10.61,13.1-14.74,5.21-4.13,10.25-7.16,15.1-9.1-7.77-2.67-13.89-6.24-18.37-10.73-4.49-4.49-6.73-10.49-6.73-18.01,0-8.49,3.39-16.43,10.19-23.83,6.79-7.4,15.52-11.95,26.2-13.64-11.16-5.33-20.08-12.73-26.74-22.2-6.67-9.46-10.01-20.5-10.01-33.11,0-14.55,3.76-27.23,11.28-38.02,7.52-10.79,17.16-19.16,28.93-25.11,11.76-5.94,23.95-8.91,36.57-8.91,8,0,16.01,1.15,24.01,3.46,8,2.31,15.4,5.64,22.19,10.01,2.42-6.79,5.88-12.85,10.37-18.19,4.49-5.33,9.64-9.52,15.46-12.55,5.82-3.03,11.88-4.55,18.19-4.55s11.1,1.64,14.37,4.91c3.28,3.27,4.91,7.7,4.91,13.28,0,1.7-.49,3.76-1.46,6.19-.97,2.43-2.61,4.49-4.91,6.19-2.31,1.7-5.4,2.55-9.28,2.55-4.13,0-7.52-1.21-10.19-3.64-2.67-2.42-4.37-5.46-5.09-9.1-6.07.97-10.8,3.82-14.19,8.55-3.4,4.73-5.7,9.89-6.91,15.46,5.82,5.34,10.49,11.77,14.01,19.28,3.51,7.52,5.28,15.53,5.28,24.01,0,13.59-3.58,25.71-10.73,36.39-7.16,10.68-16.55,18.98-28.2,24.92-11.64,5.95-24.26,8.92-37.84,8.92-4.61,0-8.61-.3-12.01-.91-3.4-.6-7.52-.91-12.37-.91-8.98,0-16.25,2.18-21.83,6.55-5.58,4.37-7.52,9.59-5.82,15.65,1.94,5.82,7.88,9.52,17.83,11.1,9.94,1.58,23.29,2.73,40.02,3.46,18.68.73,34.69,2.91,48.03,6.55,13.34,3.64,23.59,9.28,30.75,16.92,7.15,7.64,10.73,18.01,10.73,31.11,0,9.7-2.61,18.37-7.82,26.02-5.22,7.64-12.13,14.01-20.74,19.1-8.61,5.09-18.19,8.97-28.74,11.64-10.55,2.67-21.17,4-31.84,4Zm-.36-14.19c20.86,0,37.11-3.88,48.76-11.64,11.64-7.77,17.46-16.86,17.46-27.29,0-8.98-3.04-15.83-9.1-20.56-6.07-4.73-14.32-8-24.74-9.82-10.43-1.82-22.44-2.85-36.02-3.09-6.55-.24-12.98-.55-19.28-.91-6.31-.36-12.37-1.04-18.19-2-6.55,4.37-11.64,9.7-15.28,16.01-3.64,6.31-5.46,12.97-5.46,20.01,0,11.88,5.64,21.4,16.92,28.56,11.28,7.15,26.25,10.73,44.94,10.73Zm-4.73-149.18c8.97,0,16.43-2.18,22.38-6.55,5.94-4.37,10.43-10.31,13.46-17.83,3.03-7.52,4.55-16.01,4.55-25.47,0-10.67-1.58-20.61-4.73-29.84-3.16-9.22-7.82-16.61-14.01-22.2-6.19-5.58-14.01-8.37-23.47-8.37-13.1,0-23.23,4.91-30.38,14.74-7.16,9.82-10.73,22.01-10.73,36.57,0,11.64,1.69,21.89,5.09,30.75,3.39,8.86,8.31,15.77,14.74,20.74,6.42,4.97,14.13,7.46,23.1,7.46Z"/>
  <path d="m463.85,617.47c-16.74,0-31.84-3.95-45.3-11.83-13.46-7.88-24.08-19.04-31.84-33.47-7.77-14.43-11.64-31.47-11.64-51.12,0-16.98,3.82-32.87,11.46-47.66,7.64-14.79,18.38-26.74,32.2-35.84,13.83-9.1,29.84-13.64,48.03-13.64,10.19,0,19.71,1.64,28.56,4.91,8.85,3.27,16.67,8.25,23.47,14.92,6.79,6.67,12.13,15.04,16.01,25.11,3.88,10.07,5.82,21.89,5.82,35.48l-128.08,2.18c0,18.44,2,34.63,6,48.57,4,13.95,10.49,24.74,19.47,32.38,8.97,7.64,20.5,11.46,34.57,11.46,7.52,0,15.22-1.33,23.1-4,7.88-2.67,15.22-6.3,22.01-10.92,6.79-4.6,12.25-9.7,16.37-15.28l8.73,7.28c-6.55,10.19-14.44,18.32-23.65,24.38-9.22,6.07-18.68,10.43-28.38,13.1-9.71,2.67-18.68,4-26.92,4Zm-50.21-126.26h92.78c0-8.73-1.27-17.16-3.82-25.29-2.55-8.12-6.73-14.79-12.55-20.01-5.82-5.21-13.46-7.82-22.92-7.82-14.07,0-25.78,4.18-35.11,12.55-9.34,8.37-15.46,21.89-18.37,40.57Z"/>
  <path d="m641.4,617.47c-5.58,0-11.28-.79-17.1-2.36-5.82-1.58-11.22-4.67-16.19-9.28-4.97-4.61-8.91-11.34-11.83-20.19-2.91-8.85-4.37-20.56-4.37-35.11l.73-105.52-28.02.36v-15.65c6.31-.24,12.74-2.6,19.28-7.1,6.55-4.49,12.43-10.61,17.65-18.37,5.21-7.76,8.79-16.25,10.73-25.47h12.37v50.94h61.13v14.19l-61.13.73-.73,101.15c0,10.92.91,20.19,2.73,27.83,1.82,7.64,4.79,13.41,8.92,17.28,4.12,3.88,9.46,5.82,16.01,5.82s13.16-1.94,19.1-5.82c5.94-3.88,11.22-9.22,15.83-16.01l9.82,8c-5.34,8-10.61,14.32-15.83,18.92-5.22,4.61-10.25,8.07-15.1,10.37-4.86,2.3-9.34,3.76-13.46,4.37-4.13.6-7.64.91-10.55.91Z"/>
  <path d="m735.27,419.17c0-29.35,6.42-50.39,19.28-63.13,12.85-12.73,30.2-19.1,52.03-19.1,11.4,0,20.5,1.64,27.29,4.91,6.79,3.27,11.64,7.34,14.55,12.19,2.91,4.85,4.37,9.82,4.37,14.92,0,6.31-1.94,11.89-5.82,16.74-3.88,4.85-9.46,7.4-16.74,7.64-7.04.24-12.5-1.64-16.37-5.64-3.88-4-5.82-9.03-5.82-15.1,0-1.21.06-2.42.18-3.64.12-1.21.3-2.42.55-3.64-1.22-1.21-2.61-2-4.18-2.37-1.58-.36-2.97-.55-4.18-.55-3.88,0-6.91,1.15-9.1,3.46-2.18,2.31-3.64,5.16-4.37,8.55-.73,3.4-1.09,6.91-1.09,10.55v44.75h40.75v28.02l-40.39,1.09.36,93.51c0,3.4-.12,8.31-.36,14.74-.24,6.43-.61,12.43-1.09,18.01,4.12-.48,8.79-.78,14.01-.91,5.21-.12,9.03-.18,11.46-.18v27.65h-97.15v-23.65c6.79,0,11.7-1.33,14.74-4,3.03-2.67,4.97-6.49,5.82-11.46.85-4.97,1.27-10.61,1.27-16.92v-96.06l-26.56.36v-30.2h26.56v-10.55Z"/>
  <path d="m846.97,588c6.79,0,11.64-1.33,14.55-4,2.91-2.67,4.79-6.49,5.64-11.46.85-4.97,1.27-10.61,1.27-16.92v-61.13c0-4.37.12-9.28.36-14.74.24-5.46.6-10.85,1.09-16.19-3.88.24-8.43.43-13.64.55-5.22.12-9.16.31-11.83.55v-27.65h14.55c9.46,0,18.13-1.21,26.02-3.64,7.88-2.42,13.04-4.85,15.46-7.28h17.83c.48,2.43.85,6.98,1.09,13.64.24,6.67.36,12.55.36,17.65,6.55-8,12.74-14.43,18.56-19.28,5.82-4.85,11.58-8.43,17.28-10.73,5.7-2.3,11.46-3.46,17.28-3.46,8.49,0,15.88,2.36,22.19,7.09,6.31,4.73,9.46,12.43,9.46,23.1,0,3.64-.85,7.46-2.55,11.46-1.7,4-4.37,7.34-8,10.01-3.64,2.67-8.61,4-14.92,4-4.86,0-9.82-1.46-14.92-4.37-5.09-2.91-8-8.49-8.73-16.74-4.86,0-9.71,2-14.55,6-4.86,4-9.16,8.73-12.92,14.19-3.76,5.46-6.37,10.49-7.82,15.1v59.31c0,3.4-.12,8.19-.36,14.37-.24,6.19-.61,12.07-1.09,17.65,3.88-.48,8.19-.78,12.92-.91,4.73-.12,8.31-.18,10.73-.18v27.65h-95.33v-23.65Z"/>
  <path d="m1122.77,611.65c-.49-3.39-.79-6.24-.91-8.55-.12-2.3-.31-5.03-.55-8.19-8.25,8.25-16.98,14.07-26.2,17.46-9.22,3.39-18.56,5.09-28.02,5.09-15.53,0-27.65-4.61-36.38-13.83s-13.1-20.74-13.1-34.57c0-11.64,2.97-21.59,8.91-29.84,5.94-8.24,13.83-14.98,23.65-20.19,9.82-5.21,20.74-9.22,32.75-12.01,12.01-2.79,24.07-4.42,36.2-4.91v-18.92c0-6.3-.79-12.01-2.37-17.1-1.58-5.09-4.25-9.1-8-12.01-3.76-2.91-9.04-4.24-15.83-4-4.61.24-9.1,1.22-13.46,2.91-4.37,1.7-8.13,4.13-11.28,7.28,1.94,2.18,3.15,4.55,3.64,7.1.48,2.55.73,4.79.73,6.73,0,4.86-1.94,9.89-5.82,15.1-3.88,5.22-10.07,7.7-18.56,7.46-7.28-.24-12.86-2.79-16.74-7.64-3.88-4.85-5.82-10.55-5.82-17.1,0-9.7,3.46-18.13,10.37-25.29,6.91-7.15,16.19-12.73,27.83-16.74s24.5-6,38.57-6c21.34,0,37.9,5.52,49.67,16.56,11.76,11.04,17.65,28.69,17.65,52.94v21.1c0,5.82-.06,11.64-.18,17.46-.12,5.82-.18,12.86-.18,21.1,0,3.4-.12,8.19-.36,14.37-.24,6.19-.61,12.07-1.09,17.65,4.12-.48,8.49-.78,13.1-.91,4.6-.12,8.12-.18,10.55-.18v27.65h-68.77Zm-4-83.69c-6.79.73-13.22,1.94-19.28,3.64-6.07,1.7-11.34,4-15.83,6.91-4.49,2.91-8,6.43-10.55,10.55-2.55,4.13-3.82,8.73-3.82,13.83.24,6.79,2.42,11.64,6.55,14.55,4.12,2.91,8.85,4.37,14.19,4.37s10.79-1.21,15.65-3.64c4.85-2.42,9.22-5.58,13.1-9.46v-40.75Z"/>
  <path d="m1212.28,611.65v-23.65c6.79,0,11.64-1.33,14.55-4,2.91-2.67,4.79-6.49,5.64-11.46.85-4.97,1.27-10.61,1.27-16.92v-61.13c0-4.37.12-9.28.36-14.74.24-5.46.6-10.85,1.09-16.19-3.88.24-8.43.43-13.64.55-5.22.12-9.16.31-11.83.55v-27.65c11.15,0,20.61-.6,28.38-1.82,7.76-1.21,13.88-2.67,18.37-4.37,4.49-1.69,7.58-3.27,9.28-4.73h17.83c.48,3.16.73,5.46.73,6.91s.06,2.85.18,4.18c.12,1.34.55,3.7,1.27,7.1,4.85-3.88,10.43-7.33,16.74-10.37,6.3-3.03,12.61-5.46,18.92-7.28,6.3-1.82,11.88-2.73,16.74-2.73,22.31,0,38.14,6.37,47.48,19.1,9.33,12.73,14.01,33.17,14.01,61.31v48.76c0,3.4-.12,8.19-.36,14.37-.24,6.19-.61,12.07-1.09,17.65,4.12-.48,8.49-.78,13.1-.91,4.61-.12,8.12-.18,10.55-.18v27.65h-95.33v-23.65c6.79,0,11.7-1.33,14.74-4,3.03-2.67,4.97-6.49,5.82-11.46.85-4.97,1.27-10.61,1.27-16.92l-.36-51.67c0-15.77-2.25-27.47-6.73-35.11-4.49-7.64-12.07-11.46-22.74-11.46-6.07,0-12.07,1.34-18.01,4-5.95,2.67-10.98,5.82-15.1,9.46v82.23c0,3.4-.12,8.19-.36,14.37-.24,6.19-.61,12.07-1.09,17.65,3.88-.48,8.19-.78,12.92-.91,4.73-.12,8.31-.18,10.73-.18v27.65h-95.33Z"/>
  <path d="m1438.59,611.65v-23.65c6.79,0,11.7-1.33,14.74-4,3.03-2.67,4.97-6.49,5.82-11.46.85-4.97,1.27-10.61,1.27-16.92v-149.54c0-4.37.12-9.4.36-15.1.24-5.7.6-11.22,1.09-16.56-3.88.24-8.43.43-13.64.55-5.22.12-9.16.31-11.83.55v-27.65c11.15,0,20.56-.6,28.2-1.82,7.64-1.21,13.76-2.67,18.37-4.37,4.61-1.69,7.64-3.27,9.1-4.73h20.01v165.92h17.46l26.2-30.2c3.15-3.39,5.76-6.3,7.82-8.73,2.06-2.42,4.18-4.6,6.37-6.55h-19.28v-27.65h81.87v23.29c-8.49.97-16.01,2.97-22.56,6-6.55,3.04-12.19,6.61-16.92,10.73-4.73,4.13-8.79,8.13-12.19,12.01l-23.29,26.2c3.64,1.7,7.21,4.18,10.73,7.46,3.51,3.27,7.82,8.31,12.92,15.1l24.38,32.02c1.46,1.7,3.33,4,5.64,6.91,2.3,2.91,4.91,5.76,7.82,8.55,2.91,2.79,6.06,5.16,9.46,7.09,3.39,1.94,6.91,2.91,10.55,2.91v23.65h-41.84c-7.77,0-14.55-2.73-20.38-8.19-5.82-5.46-12.5-13.28-20.01-23.47-4.37-5.82-8.91-12.06-13.64-18.74-4.73-6.67-9.1-12.97-13.1-18.92-4-5.94-7.22-10.61-9.64-14.01l-8.37.36v24.38c0,3.4-.12,8.19-.36,14.37-.24,6.19-.61,12.07-1.09,17.65,3.88-.48,8.12-.78,12.73-.91,4.61-.12,8.24-.18,10.92-.18v27.65h-95.69Z"/>
  <path d="m1660.53,588c6.79,0,11.64-1.33,14.55-4,2.91-2.67,4.79-6.49,5.64-11.46.85-4.97,1.27-10.61,1.27-16.92v-60.4c0-4.37.12-9.4.36-15.1.24-5.7.6-11.22,1.09-16.56-3.88.24-8.43.43-13.64.55-5.22.12-9.16.31-11.83.55v-27.65c11.15,0,20.61-.6,28.38-1.82,7.76-1.21,13.88-2.67,18.37-4.37,4.49-1.69,7.58-3.27,9.28-4.73h19.65v126.98c0,3.4-.12,8.19-.36,14.37-.24,6.19-.61,12.07-1.09,17.65,3.88-.48,8.19-.78,12.92-.91,4.73-.12,8.31-.18,10.73-.18v27.65h-95.33v-23.65Zm45.48-190.66c-8.25,0-15.04-2.91-20.38-8.73-5.34-5.82-8-12.85-8-21.1s2.79-15.28,8.37-21.1c5.58-5.82,12.13-8.73,19.65-8.73s14.25,2.91,19.47,8.73c5.21,5.82,7.82,12.86,7.82,21.1s-2.43,15.28-7.28,21.1c-4.86,5.82-11.4,8.73-19.65,8.73Z"/>
</svg>
