<svg xmlns="http://www.w3.org/2000/svg" width="512" height="512" fill="none" viewBox="0 0 1080 1080">
  <g>
    <path fill="#000000" d="m691.86,276.31c-9.99-21.64-23.99-40.47-41.96-56.45,0,0-15.5-14.51-37.08-26.4-5.76-2.82-44.77-22.3-62.83-26.56-22.65-5.32-43.3-7.99-61.94-7.99-36.63,0-71.92,8.49-105.88,25.47-33.97,16.98-61.44,40.8-82.42,71.43-20.98,30.64-31.14,65.94-30.47,105.9.65,33.97,10.15,63.28,28.47,87.92,18.31,24.65,67.32,59.09,66.4,59.35,5.72,3.25,9,5.03,13.52,6.89,7.62,4.1,10.21,4.67,17.17,8.2,4.35,2.58,8.49,3.23,11.13,4.16,5.85,2.06,10.74,3.42,17.64,5.34,10.95,2.59,21.68,5.49,31.49,6.47,9.98,1,19.98,1.49,29.97,1.49,4.9,0,9.76-.14,14.59-.4,33.16-1.84,64.44-10.03,93.8-24.58,33.63-16.63,60.94-39.79,81.93-69.43,20.98-29.62,31.46-63.43,31.46-101.4,0-24.63-4.99-47.78-14.98-69.42Zm-121.39,146.85c-6.99,18.33-17.32,33.32-30.96,44.96-13.66,11.66-30.48,17.48-50.46,17.48s-37.13-6.49-51.44-19.48c-14.33-12.99-25.32-30.63-32.97-52.94-7.66-22.31-11.48-46.46-11.48-72.44,0-33.96,8.14-63.43,24.47-88.41,16.31-24.97,39.46-37.46,69.44-37.46,21.3,0,38.96,7.16,52.94,21.48,13.98,14.33,24.3,32.97,30.98,55.95,6.65,22.98,9.99,47.12,9.99,72.42,0,20.65-3.5,40.13-10.5,58.44Z"/>
    <path fill="#000000" d="m684.56,173.5c0-38.53,31.23-69.76,69.77-69.76s69.76,31.23,69.76,69.76-31.23,69.76-69.76,69.76-69.77-31.24-69.77-69.76Z"/>
  </g>
  <path fill="#000000" d="m708.45,724.6c-20.65-21.63-49.95-37.47-87.91-47.46-37.96-9.99-82.59-16.31-133.86-18.98-45.96-2.64-79.92-6.15-101.9-10.49-13.05-2.56-26.72-8.32-34.68-19.36-7.23-10.01-10.58-22.94-10.26-35.19.25-9.72,2.88-18.18,5.21-27.45,1.56-6.21,1.47-12.76-6.72-12.45-15.27.57-33.14,13.05-44.16,22.91-5.34,4.79-10.54,10.31-14.8,16.1-15.65,21.32-23.47,41.63-23.47,60.93s5.65,36.47,16.98,51.45c10.99,14.53,28.61,25.43,52.77,32.77,1.92.45,3.33,1.35,5.51,2.1.82.28,1.53.51,2.24,1,1.2.17,2.27,1.24,3.55,1.66,10.53,3.43,20.78,5.52,32.5,9.12,8.61,2.65,16.93,3.88,25.82,5.87,12.05,1.67,24.56,3.68,38.46,4.42,18.64,1,35.62,1.83,50.94,2.49,34.63,1.32,63.6,4.65,86.92,9.99,23.3,5.33,41.29,13.14,53.95,23.48,12.65,10.31,18.99,24.14,18.99,41.46,0,20.68-13.29,37.14-27.48,50.74-4.31,4.12-8.74,8.11-13.04,12.23-10.42,9.97-20.58,19.84-32.82,27.58-9.14,5.78-18.79,10.71-27.95,16.45-6.94,4.34-13.67,9.08-19.62,14.73-18.97,18,19.24,15.99,28.9,14.86,27.54-3.21,53.43-11.33,78.53-23.01,7.11-3.31,14.11-6.87,20.98-10.68,26.3-14.66,47.44-32.64,63.43-53.94,15.98-21.32,23.98-45.96,23.98-73.93,0-37.96-10.34-67.78-30.98-89.41Z"/>
</svg>
